<svg xmlns="http://www.w3.org/2000/svg"  viewBox="0 0 64 64" width="64px" height="64px"><linearGradient id="mQ~BTxJsxgRHpG4la1Q8Ya" x1="32" x2="32" y1="603.75" y2="567" gradientTransform="matrix(1 0 0 -1 0 618)" gradientUnits="userSpaceOnUse" spreadMethod="reflect"><stop offset="0" stop-color="#1a6dff"/><stop offset="1" stop-color="#c822ff"/></linearGradient><path fill="url(#mQ~BTxJsxgRHpG4la1Q8Ya)" d="M37.062,49c-0.483,0-0.969-0.113-1.42-0.343C34.629,48.14,34,47.127,34,46.011V40 c0,0-0.43,0-0.978,0h-24C7.355,40,6,38.654,6,37V27c0-1.654,1.355-3,3.022-3h24C33.57,24,34,24,34,24v-6.011 c0-1.116,0.629-2.13,1.643-2.646c1.051-0.533,2.29-0.438,3.236,0.248L55.8,27.877c1.21,0.878,2.064,2.215,2.182,3.705 c0.14,1.764-0.618,3.399-2.028,4.424L38.879,48.409C38.339,48.801,37.703,49,37.062,49z M9.022,26C8.468,26,8,26.458,8,27v10 c0,0.542,0.468,1,1.022,1h24C34.664,38,36,38,36,38v8.011c0,0.527,0.385,0.78,0.551,0.864c0.381,0.194,0.813,0.163,1.152-0.085 l16.988-12.339c0.682-0.495,1.181-1.233,1.284-2.069c0.136-1.103-0.315-2.134-1.19-2.77L37.703,17.21 c-0.34-0.248-0.771-0.28-1.152-0.085C36.385,17.209,36,17.462,36,17.989V26c0,0-1.336,0-2.978,0H9.022z"/><linearGradient id="mQ~BTxJsxgRHpG4la1Q8Yb" x1="32.002" x2="32.002" y1="595.435" y2="576.814" gradientTransform="matrix(1 0 0 -1 0 618)" gradientUnits="userSpaceOnUse" spreadMethod="reflect"><stop offset="0" stop-color="#6dc7ff"/><stop offset="1" stop-color="#e6abff"/></linearGradient><path fill="url(#mQ~BTxJsxgRHpG4la1Q8Yb)" d="M51.171,30.395l-10.589-7.207C39.92,22.715,39,23.189,39,24.002V30H13.023 C12.46,30,12,30.46,12,31.023V33c0,0.552,0.448,1,1,1h26v5.998c0,0.814,0.92,1.287,1.582,0.814l10.583-7.165 C52.281,32.85,52.286,31.192,51.171,30.395z"/></svg>