<svg xmlns="http://www.w3.org/2000/svg"  viewBox="0 0 32 32" width="32px" height="32px"><path d="M 3 6 L 3 7 L 3 26 L 29 26 L 29 6 L 3 6 z M 5 8 L 27 8 L 27 24 L 5 24 L 5 8 z M 7 12 L 7 14 L 10 14 L 10 12 L 7 12 z M 10 14 L 10 16 L 14 16 L 14 14 L 10 14 z M 14 16 L 14 18 L 18 18 L 18 16 L 14 16 z M 18 16 L 22 16 L 22 14 L 18 14 L 18 16 z M 22 14 L 25 14 L 25 12 L 22 12 L 22 14 z M 9 18 L 9 20 L 12 20 L 12 18 L 9 18 z M 9 20 L 7 20 L 7 22 L 9 22 L 9 20 z M 20 18 L 20 20 L 23 20 L 23 18 L 20 18 z M 23 20 L 23 22 L 25 22 L 25 20 L 23 20 z"/></svg>